<svg xmlns="http://www.w3.org/2000/svg" viewBox="0 0 1440 1120" role="img" aria-label="Robot base and tool trajectory">
<rect width="1440" height="1120" fill="#f7f9fc"/>
<text x="48" y="48" fill="#203047" font-family="Arial, sans-serif" font-size="26" font-weight="bold" text-anchor="start">Case 0 | V-mobile</text>
<text x="48" y="83" fill="#147f60" font-family="Arial, sans-serif" font-size="18" font-weight="bold" text-anchor="start">STRICT PICK SUCCESS   •   226 recorded steps   •   22 tool calls   •   base net 0.008 m   •   termination: official_success</text>
<text x="48" y="111" fill="#59697c" font-family="Arial, sans-serif" font-size="15" font-weight="normal" text-anchor="start">Evaluation-side trajectory; no scene geometry or third-person image entered the model request.</text>
<rect x="40" y="135" width="660" height="480" rx="14" fill="white" stroke="#dce4ed"/>
<rect x="740" y="135" width="660" height="480" rx="14" fill="white" stroke="#dce4ed"/>
<text x="66" y="172" fill="#203047" font-family="Arial, sans-serif" font-size="21" font-weight="bold" text-anchor="start">Top view: base + tool tip (x/y meters)</text>
<text x="766" y="172" fill="#203047" font-family="Arial, sans-serif" font-size="21" font-weight="bold" text-anchor="start">Side view: tool tip (x/z meters)</text>
<line x1="135.8" y1="210.0" x2="135.8" y2="566.0" stroke="#e8edf2" stroke-width="1"/>
<text x="135.8354651915564" y="583" fill="#718197" font-family="Arial, sans-serif" font-size="12" font-weight="normal" text-anchor="middle">0.00</text>
<line x1="399.7" y1="210.0" x2="399.7" y2="566.0" stroke="#e8edf2" stroke-width="1"/>
<text x="399.73553598852186" y="583" fill="#718197" font-family="Arial, sans-serif" font-size="12" font-weight="normal" text-anchor="middle">0.50</text>
<line x1="92.0" y1="370.3" x2="652.0" y2="370.3" stroke="#e8edf2" stroke-width="1"/>
<text x="84" y="374.349244637607" fill="#718197" font-family="Arial, sans-serif" font-size="12" font-weight="normal" text-anchor="end">0.00</text>
<line x1="846.1" y1="210.0" x2="846.1" y2="566.0" stroke="#e8edf2" stroke-width="1"/>
<text x="846.0994820126964" y="583" fill="#718197" font-family="Arial, sans-serif" font-size="12" font-weight="normal" text-anchor="middle">0.00</text>
<line x1="1009.8" y1="210.0" x2="1009.8" y2="566.0" stroke="#e8edf2" stroke-width="1"/>
<text x="1009.7555265850668" y="583" fill="#718197" font-family="Arial, sans-serif" font-size="12" font-weight="normal" text-anchor="middle">0.50</text>
<line x1="1173.4" y1="210.0" x2="1173.4" y2="566.0" stroke="#e8edf2" stroke-width="1"/>
<text x="1173.4115711574373" y="583" fill="#718197" font-family="Arial, sans-serif" font-size="12" font-weight="normal" text-anchor="middle">1.00</text>
<line x1="1337.1" y1="210.0" x2="1337.1" y2="566.0" stroke="#e8edf2" stroke-width="1"/>
<text x="1337.067615729808" y="583" fill="#718197" font-family="Arial, sans-serif" font-size="12" font-weight="normal" text-anchor="middle">1.50</text>
<line x1="790.0" y1="533.5" x2="1350.0" y2="533.5" stroke="#e8edf2" stroke-width="1"/>
<text x="782" y="537.5378421751336" fill="#718197" font-family="Arial, sans-serif" font-size="12" font-weight="normal" text-anchor="end">0.50</text>
<line x1="790.0" y1="369.9" x2="1350.0" y2="369.9" stroke="#e8edf2" stroke-width="1"/>
<text x="782" y="373.8817976027631" fill="#718197" font-family="Arial, sans-serif" font-size="12" font-weight="normal" text-anchor="end">1.00</text>
<line x1="135.8" y1="210.0" x2="135.8" y2="566.0" stroke="#d7dfe9" stroke-width="1" stroke-dasharray="5 5"/>
<line x1="92.0" y1="370.3" x2="652.0" y2="370.3" stroke="#d7dfe9" stroke-width="1" stroke-dasharray="5 5"/>
<text x="141.8354651915564" y="222" fill="#64788f" font-family="Arial, sans-serif" font-size="13" font-weight="normal" text-anchor="start">start base</text>
<polyline points="135.8,370.3 135.8,370.3 135.8,370.3 135.8,370.3 135.8,370.3 135.8,370.3 135.8,370.3 135.8,370.3 136.0,370.6 135.9,370.5 135.9,370.5 136.0,370.5 136.1,370.6 136.0,370.5 136.2,370.6 136.0,370.6 136.1,370.6 136.0,370.6 136.2,370.6 136.0,370.6 136.1,370.6 136.0,370.6 136.2,370.6 136.0,370.6 136.1,370.6 136.1,370.6 136.1,370.7 136.1,370.7 136.1,370.7 136.0,370.6 136.0,370.6 136.0,370.6 135.9,370.6 136.0,370.6 135.9,370.7 135.8,370.7 135.9,370.4 135.9,370.5 135.9,370.6 135.8,370.8 135.9,370.4 135.9,370.4 135.9,370.6 135.8,370.8 135.9,370.5 135.9,370.4 135.9,370.7 135.9,370.9 135.9,371.0 135.9,370.5 135.8,370.1 135.9,370.0 135.9,370.4 135.8,370.7 135.9,370.8 135.8,370.3 135.9,370.1 135.8,370.2 136.0,370.2 135.9,370.2 136.0,370.2 135.9,370.2 135.9,370.3 135.9,370.3 135.9,370.1 135.9,369.9 135.9,370.1 136.0,370.2 136.0,370.1 136.0,370.1 135.9,370.1 136.0,370.2 135.9,370.2 136.0,370.2 135.9,370.3 135.9,370.3 135.9,370.3 135.9,370.4 135.9,370.4 135.9,370.4 135.9,370.4 135.9,370.5 135.9,370.5 135.8,370.5 135.8,370.5 135.8,370.6 135.7,370.6 135.7,370.6 135.7,370.6 135.7,370.7 135.6,370.7 135.7,370.7 135.6,370.7 135.6,370.8 135.6,370.8 135.6,370.8 135.6,370.7 135.9,371.0 135.7,371.0 135.8,370.9 135.6,370.9 135.7,370.8 135.6,370.6 135.7,370.6 135.6,370.6 135.7,370.6 135.6,370.5 135.7,370.5 135.7,370.4 135.4,370.5 135.2,370.5 135.4,370.4 135.2,370.5 135.1,370.5 135.1,370.5 135.0,370.5 134.9,370.5 134.9,370.5 134.8,370.5 134.8,370.5 134.7,370.5 135.0,370.4 135.3,370.4 135.4,370.4 135.2,370.5 135.0,370.4 134.9,370.5 135.3,370.4 135.4,370.4 135.5,370.4 135.6,370.4 135.6,370.4 135.7,370.4 135.7,370.4 135.7,370.4 135.8,370.4 135.8,370.4 135.8,370.4 135.8,370.4 135.8,370.4 135.8,370.4 135.8,370.4 135.5,370.5 135.3,370.5 135.2,370.4 135.1,370.5 135.1,370.5 135.3,370.4 135.4,370.4 135.5,370.4 135.6,370.4 135.7,370.4 135.7,370.4 135.7,370.4 135.7,370.4 135.7,370.4 135.8,370.4 135.8,370.4 135.8,370.2 135.8,370.0 135.8,369.7 136.0,369.3 135.9,368.9 135.8,368.3 135.9,368.0 135.9,367.8 136.0,367.7 136.1,367.3 136.1,366.9 136.2,366.5 136.2,366.2 136.2,366.0 136.2,366.0 136.2,365.9 136.2,365.9 136.1,365.9 136.1,365.9 135.9,365.5 135.7,365.0 135.7,364.6 135.7,364.3 135.9,364.0 136.0,363.7 136.2,363.4 136.4,363.2 136.6,363.1 136.8,363.4 137.0,364.2 137.1,365.0 136.7,365.2 136.5,365.2 136.5,365.2 136.4,365.3 136.4,365.4 136.3,365.5 136.3,365.7 136.3,365.7 136.3,365.8 136.3,365.8 136.3,365.8 136.3,365.9 136.3,365.9 136.3,365.9 136.3,365.9 136.3,365.9 136.3,366.0 136.3,366.0 136.3,366.0 136.3,366.0 136.3,366.0 136.3,366.0 136.3,366.0 136.3,366.0 136.3,366.0 136.3,366.0 136.3,366.0 136.2,366.0 136.2,366.0 136.1,366.0 136.1,366.0 136.1,366.0 136.1,366.0 136.0,366.0 136.1,366.0 136.0,366.0 136.1,366.0 136.0,365.9" fill="none" stroke="#147d89" stroke-width="5" stroke-linecap="round" stroke-linejoin="round"/>
<polyline points="386.5,372.2 386.5,372.2 386.5,372.2 386.5,372.2 386.5,372.2 386.5,372.2 386.5,372.2 386.5,372.2 388.8,370.6 384.5,371.3 391.0,370.6 387.7,370.9 392.9,368.6 389.8,368.9 394.5,367.5 394.5,366.3 399.0,364.9 395.1,365.2 399.9,363.8 399.9,362.7 404.8,361.2 400.5,361.5 405.3,360.2 405.4,359.1 410.5,357.6 407.2,357.6 413.8,355.4 409.3,356.0 415.5,353.7 411.6,354.4 417.9,352.2 414.7,353.0 422.5,350.1 418.5,350.6 426.8,348.1 425.5,347.9 430.1,348.9 424.7,349.7 431.3,345.2 429.3,342.9 433.8,345.5 429.1,347.8 433.7,343.9 431.2,340.5 436.0,342.3 432.3,345.7 431.8,342.3 428.1,337.8 433.3,334.1 433.1,339.4 437.2,344.8 429.8,346.0 436.1,341.7 433.0,337.5 435.8,336.7 438.0,342.3 435.8,345.3 439.1,343.8 432.6,344.3 436.5,342.3 435.3,342.5 439.2,340.5 438.5,340.7 438.8,340.6 441.3,341.9 443.7,343.6 445.1,340.3 445.8,336.6 447.7,336.3 449.3,336.6 451.1,335.8 452.3,334.6 453.8,333.8 455.2,333.3 456.4,332.5 457.8,331.9 458.8,331.0 460.0,330.5 460.9,329.7 462.1,329.2 462.6,328.2 463.2,327.6 464.3,326.8 466.1,326.6 467.7,325.5 469.5,325.2 470.9,324.1 472.9,324.1 474.5,322.6 476.4,322.4 478.3,320.4 480.1,319.5 482.0,316.7 483.7,315.0 484.6,312.7 485.9,312.1 486.4,311.9 484.9,309.0 486.7,304.0 488.1,306.0 487.7,303.2 487.6,309.0 489.9,307.1 490.5,312.9 491.4,308.1 491.5,312.2 492.1,307.7 491.7,307.8 492.0,307.6 496.2,308.2 498.0,307.6 498.8,307.7 503.4,306.8 505.2,306.2 508.7,307.1 512.6,304.6 517.4,307.3 520.2,303.0 526.1,305.0 530.5,300.5 538.7,302.7 537.9,299.8 537.8,300.2 538.2,299.9 546.0,302.0 550.2,301.2 554.9,303.9 553.6,304.5 554.5,304.5 555.6,304.1 556.4,303.8 557.0,303.7 557.0,303.7 557.1,303.6 557.1,303.6 557.1,303.6 557.1,303.6 557.1,303.6 557.1,303.6 557.1,303.6 557.1,303.6 557.1,303.6 561.2,301.8 566.9,304.9 567.9,304.6 571.4,305.1 577.7,301.5 583.0,306.3 584.3,306.7 584.2,307.0 583.9,305.8 583.4,305.2 583.0,304.7 582.7,304.4 582.5,304.3 582.4,304.1 582.3,303.6 582.0,300.7 581.2,296.9 580.4,292.5 579.6,288.4 575.8,284.6 575.4,283.2 576.5,284.2 576.3,289.2 574.6,283.4 572.6,283.1 571.2,279.3 570.0,282.2 569.3,281.1 567.9,286.3 566.5,284.3 565.3,287.2 564.8,284.3 563.0,287.9 563.6,287.7 563.6,287.9 571.5,292.3 582.8,302.7 592.4,315.7 600.0,330.2 605.6,347.7 608.9,371.3 609.3,397.2 606.8,423.3 601.4,448.7 594.8,467.7 588.4,475.1 581.9,476.2 579.2,479.2 575.1,485.6 569.7,491.6 564.8,495.1 560.0,496.7 555.1,496.4 550.3,494.9 544.9,493.2 539.3,491.5 533.5,489.5 527.5,486.9 521.5,483.8 515.2,480.4 508.9,476.8 502.3,472.8 495.7,468.6 489.0,464.2 482.2,459.5 475.3,454.8 468.3,449.8 461.3,444.8 454.3,439.7 447.2,434.8 440.2,429.7 433.1,424.8 426.1,419.8 419.1,415.1 417.5,409.8 412.7,404.9 417.0,398.7 410.6,393.9 414.6,387.7 408.3,383.2 412.2,376.9 406.0,372.7 409.9,366.1 404.4,365.5 409.5,364.1" fill="none" stroke="#df8a19" stroke-width="3" stroke-linecap="round" stroke-linejoin="round"/>
<polyline points="1001.6,294.0 1001.6,294.0 1001.6,294.0 1001.6,294.0 1001.6,294.0 1001.6,294.0 1001.6,294.0 1001.6,294.0 1003.0,296.4 1000.3,298.9 1004.3,303.0 1002.3,302.9 1005.5,306.2 1003.6,307.5 1006.5,309.6 1006.5,311.9 1009.3,314.9 1006.9,316.2 1009.8,318.4 1009.9,320.6 1012.9,323.2 1010.3,324.7 1013.2,326.5 1013.3,329.0 1016.4,331.5 1014.4,334.2 1018.5,336.6 1015.7,338.5 1019.5,340.2 1017.1,342.6 1021.0,344.5 1019.0,347.0 1023.9,348.0 1021.4,350.3 1026.5,351.2 1025.7,350.6 1028.6,351.1 1025.3,354.2 1029.3,355.6 1028.1,354.8 1030.9,355.4 1027.9,358.4 1030.8,360.0 1029.3,360.1 1032.3,360.6 1029.9,364.0 1029.6,365.0 1027.3,363.6 1030.5,358.5 1030.5,358.4 1033.0,360.8 1028.4,365.2 1032.3,366.9 1030.4,366.9 1032.1,363.6 1033.5,365.1 1032.1,367.2 1034.1,368.2 1030.1,368.9 1032.5,369.1 1031.8,369.9 1034.2,369.7 1033.8,369.3 1034.0,369.1 1035.5,370.8 1037.0,373.5 1037.9,375.6 1038.3,376.8 1039.5,379.2 1040.5,381.6 1041.6,384.8 1042.4,387.0 1043.3,390.3 1044.1,392.6 1044.9,396.1 1045.7,398.8 1046.4,402.6 1047.2,405.3 1047.7,409.4 1048.4,412.6 1048.8,416.6 1049.1,420.0 1049.8,423.3 1050.9,426.3 1051.9,429.4 1053.0,432.4 1053.9,435.7 1055.1,438.6 1056.1,442.0 1057.3,444.7 1058.5,447.7 1059.6,450.2 1060.7,452.8 1061.8,454.8 1062.4,457.4 1063.2,459.4 1063.5,461.7 1062.6,461.9 1063.7,462.9 1064.6,463.4 1064.3,468.0 1064.2,470.1 1065.7,471.9 1066.0,472.0 1066.6,473.7 1066.7,474.8 1067.1,476.5 1066.8,476.8 1066.9,476.7 1069.6,479.0 1070.7,483.4 1071.2,484.1 1074.1,485.2 1075.2,489.7 1077.3,492.2 1079.7,494.4 1082.7,496.7 1084.4,501.3 1088.1,503.7 1090.8,507.7 1096.0,509.0 1095.4,511.8 1095.4,511.5 1095.6,511.3 1100.5,513.5 1103.1,517.7 1106.0,522.1 1105.2,523.5 1105.7,523.2 1106.4,522.7 1106.9,522.4 1107.3,522.2 1107.3,522.1 1107.3,522.1 1107.3,522.1 1107.4,522.0 1107.4,522.0 1107.4,522.0 1107.4,522.0 1107.4,522.0 1107.4,522.0 1107.4,522.0 1109.9,525.0 1113.4,528.6 1114.0,535.0 1116.2,538.8 1120.1,538.2 1123.4,533.3 1124.2,531.7 1124.2,531.3 1124.0,531.8 1123.7,532.6 1123.4,533.4 1123.2,534.0 1123.1,534.5 1123.0,534.9 1123.0,534.9 1122.8,534.8 1122.3,534.9 1121.8,534.9 1121.3,534.9 1119.0,532.3 1118.7,527.9 1119.4,523.3 1119.3,519.1 1118.2,515.7 1117.0,511.4 1116.1,506.6 1115.3,501.9 1114.9,497.5 1114.1,494.2 1113.2,491.1 1112.4,486.2 1112.1,482.5 1111.0,478.2 1111.4,474.2 1111.4,471.6 1116.2,461.7 1123.3,446.0 1129.3,428.1 1134.0,408.4 1137.4,387.8 1139.5,366.8 1139.7,345.4 1138.1,323.4 1134.8,301.1 1130.7,278.7 1126.8,257.0 1122.7,243.2 1121.1,240.3 1118.5,241.3 1115.1,239.7 1112.1,237.2 1109.2,239.0 1106.1,243.9 1103.1,249.0 1099.8,253.3 1096.3,256.9 1092.7,261.1 1089.0,264.9 1085.3,268.6 1081.4,271.8 1077.5,275.1 1073.4,278.0 1069.3,280.8 1065.1,283.1 1060.9,285.3 1056.6,287.1 1052.3,288.7 1047.9,289.9 1043.6,290.9 1039.2,291.4 1034.8,291.8 1030.4,291.7 1026.1,291.5 1021.8,290.8 1020.8,291.0 1017.8,290.5 1020.5,291.6 1016.5,290.6 1019.0,291.4 1015.1,290.2 1017.5,290.8 1013.6,289.1 1016.0,289.4 1012.6,288.2 1015.8,289.1" fill="none" stroke="#df8a19" stroke-width="4" stroke-linecap="round" stroke-linejoin="round"/>
<circle cx="135.8" cy="370.3" r="7" fill="white" stroke="#147d89" stroke-width="3"/>
<circle cx="136.0" cy="365.9" r="7" fill="#147d89"/>
<circle cx="386.5" cy="372.2" r="7" fill="white" stroke="#df8a19" stroke-width="3"/>
<circle cx="409.5" cy="364.1" r="7" fill="#df8a19"/>
<circle cx="1001.6" cy="294.0" r="7" fill="white" stroke="#df8a19" stroke-width="3"/>
<circle cx="1015.8" cy="289.1" r="7" fill="#df8a19"/>
<circle cx="582.3" cy="303.6" r="9" fill="#147f60" stroke="white" stroke-width="2"/>
<circle cx="1123.0" cy="534.9" r="9" fill="#147f60" stroke="white" stroke-width="2"/>
<circle cx="409.9" cy="366.1" r="9" fill="#147f60" stroke="white" stroke-width="2"/>
<circle cx="1016.0" cy="289.4" r="9" fill="#147f60" stroke="white" stroke-width="2"/>
<text x="95" y="593" fill="#526278" font-family="Arial, sans-serif" font-size="15" font-weight="normal" text-anchor="start">teal: base   orange: TCP tip   green: first grasp   ○ start   ● end</text>
<text x="790" y="593" fill="#526278" font-family="Arial, sans-serif" font-size="15" font-weight="normal" text-anchor="start">horizontal x / vertical z in start-base coordinates (meters)</text>
<rect x="40" y="640" width="1360" height="160" rx="14" fill="white" stroke="#dce4ed"/>
<text x="64" y="675" fill="#203047" font-family="Arial, sans-serif" font-size="21" font-weight="bold" text-anchor="start">Tool calls on the official step clock</text>
<line x1="70.0" y1="704.0" x2="70.0" y2="746.0" stroke="#8d99a6" stroke-width="3"/>
<line x1="70.0" y1="704.0" x2="70.0" y2="746.0" stroke="#648744" stroke-width="3"/>
<line x1="70.0" y1="704.0" x2="70.0" y2="746.0" stroke="#8d99a6" stroke-width="3"/>
<line x1="70.0" y1="704.0" x2="70.0" y2="746.0" stroke="#648744" stroke-width="3"/>
<rect x="70.0" y="704" width="17.3" height="42" fill="#9957ae" stroke="white"/>
<rect x="87.3" y="704" width="11.5" height="42" fill="#df8a19" stroke="white"/>
<rect x="98.8" y="704" width="322.1" height="42" fill="#df8a19" stroke="white"/>
<text x="259.82300884955754" y="731" fill="white" font-family="Arial, sans-serif" font-size="13" font-weight="bold" text-anchor="middle">move_to</text>
<rect x="420.9" y="704" width="258.8" height="42" fill="#df8a19" stroke="white"/>
<text x="550.3097345132743" y="731" fill="white" font-family="Arial, sans-serif" font-size="13" font-weight="bold" text-anchor="middle">move_to</text>
<line x1="679.7" y1="704.0" x2="679.7" y2="746.0" stroke="#8d99a6" stroke-width="3"/>
<rect x="679.7" y="704" width="86.3" height="42" fill="#df8a19" stroke="white"/>
<text x="722.8761061946904" y="731" fill="white" font-family="Arial, sans-serif" font-size="13" font-weight="bold" text-anchor="middle">9</text>
<line x1="766.0" y1="704.0" x2="766.0" y2="746.0" stroke="#8d99a6" stroke-width="3"/>
<line x1="766.0" y1="704.0" x2="766.0" y2="746.0" stroke="#648744" stroke-width="3"/>
<rect x="766.0" y="704" width="28.8" height="42" fill="#df8a19" stroke="white"/>
<text x="780.3982300884956" y="731" fill="white" font-family="Arial, sans-serif" font-size="13" font-weight="bold" text-anchor="middle">12</text>
<rect x="794.8" y="704" width="57.5" height="42" fill="#9957ae" stroke="white"/>
<text x="823.5398230088495" y="731" fill="white" font-family="Arial, sans-serif" font-size="13" font-weight="bold" text-anchor="middle">13</text>
<rect x="852.3" y="704" width="17.3" height="42" fill="#9957ae" stroke="white"/>
<line x1="869.6" y1="704.0" x2="869.6" y2="746.0" stroke="#8d99a6" stroke-width="3"/>
<line x1="869.6" y1="704.0" x2="869.6" y2="746.0" stroke="#648744" stroke-width="3"/>
<rect x="869.6" y="704" width="46.0" height="42" fill="#df8a19" stroke="white"/>
<text x="892.566371681416" y="731" fill="white" font-family="Arial, sans-serif" font-size="13" font-weight="bold" text-anchor="middle">17</text>
<rect x="915.6" y="704" width="63.3" height="42" fill="#9957ae" stroke="white"/>
<text x="947.212389380531" y="731" fill="white" font-family="Arial, sans-serif" font-size="13" font-weight="bold" text-anchor="middle">18</text>
<line x1="978.8" y1="704.0" x2="978.8" y2="746.0" stroke="#648744" stroke-width="3"/>
<rect x="978.8" y="704" width="92.0" height="42" fill="#df8a19" stroke="white"/>
<text x="1024.867256637168" y="731" fill="white" font-family="Arial, sans-serif" font-size="13" font-weight="bold" text-anchor="middle">20</text>
<rect x="1070.9" y="704" width="299.1" height="42" fill="#4467ae" stroke="white"/>
<text x="1220.4424778761063" y="731" fill="white" font-family="Arial, sans-serif" font-size="13" font-weight="bold" text-anchor="middle">return_to_rest</text>
<text x="70.0" y="783" fill="#5c6b7d" font-family="Arial, sans-serif" font-size="13" font-weight="normal" text-anchor="middle">0</text>
<text x="392.12389380530976" y="783" fill="#5c6b7d" font-family="Arial, sans-serif" font-size="13" font-weight="normal" text-anchor="middle">56</text>
<text x="720.0" y="783" fill="#5c6b7d" font-family="Arial, sans-serif" font-size="13" font-weight="normal" text-anchor="middle">113</text>
<text x="1042.1238938053098" y="783" fill="#5c6b7d" font-family="Arial, sans-serif" font-size="13" font-weight="normal" text-anchor="middle">169</text>
<text x="1370.0" y="783" fill="#5c6b7d" font-family="Arial, sans-serif" font-size="13" font-weight="normal" text-anchor="middle">226</text>
<rect x="40" y="825" width="660" height="245" rx="14" fill="white" stroke="#dce4ed"/>
<rect x="740" y="825" width="660" height="245" rx="14" fill="white" stroke="#dce4ed"/>
<text x="65" y="861" fill="#203047" font-family="Arial, sans-serif" font-size="20" font-weight="bold" text-anchor="start">Finger opening (meters)</text>
<text x="765" y="861" fill="#203047" font-family="Arial, sans-serif" font-size="20" font-weight="bold" text-anchor="start">Official cumulative force</text>
<polyline points="65.0,993.9 67.7,993.9 70.4,993.9 73.1,961.7 75.8,941.8 78.5,929.8 81.2,922.5 83.9,918.1 86.6,915.4 89.3,913.8 92.0,912.8 94.7,912.2 97.4,911.9 100.1,911.7 102.8,911.5 105.5,911.5 108.2,911.4 110.9,911.4 113.6,911.4 116.3,911.4 119.0,911.4 121.7,911.4 124.4,911.4 127.1,911.4 129.8,911.4 132.5,911.4 135.2,911.4 137.9,911.4 140.6,911.4 143.3,911.4 146.0,911.4 148.7,911.4 151.4,911.4 154.1,911.4 156.8,911.4 159.5,911.4 162.2,911.5 164.9,911.5 167.6,911.5 170.3,911.4 173.0,911.6 175.7,911.5 178.4,911.6 181.1,911.5 183.8,911.6 186.5,911.5 189.2,911.6 191.9,911.5 194.6,911.4 197.3,911.6 200.0,911.4 202.7,911.5 205.4,911.5 208.1,911.4 210.8,911.5 213.5,911.5 216.2,911.5 218.8,911.5 221.5,911.4 224.2,911.4 226.9,911.4 229.6,911.4 232.3,911.4 235.0,911.4 237.7,911.4 240.4,911.4 243.1,911.5 245.8,911.4 248.5,911.5 251.2,911.4 253.9,911.4 256.6,911.4 259.3,911.4 262.0,911.4 264.7,911.4 267.4,911.4 270.1,911.4 272.8,911.4 275.5,911.4 278.2,911.4 280.9,911.4 283.6,911.4 286.3,911.4 289.0,911.4 291.7,911.4 294.4,911.4 297.1,911.4 299.8,911.4 302.5,911.4 305.2,911.4 307.9,911.4 310.6,911.4 313.3,911.4 316.0,911.4 318.7,911.4 321.4,911.4 324.1,911.4 326.8,911.5 329.5,911.5 332.2,911.5 334.9,911.5 337.6,911.5 340.3,911.5 343.0,911.5 345.7,911.6 348.4,911.5 351.1,911.5 353.8,911.5 356.5,911.4 359.2,911.4 361.9,911.4 364.6,911.4 367.3,911.4 370.0,911.4 372.7,911.4 375.4,911.4 378.1,911.5 380.8,911.5 383.5,911.5 386.2,911.5 388.9,911.5 391.6,911.4 394.3,911.4 397.0,911.4 399.7,911.4 402.4,911.4 405.1,911.4 407.8,911.4 410.5,911.4 413.2,911.4 415.9,911.4 418.6,911.4 421.3,964.5 424.0,997.4 426.7,1017.3 429.4,1025.0 432.1,1025.0 434.8,1025.0 437.5,1025.0 440.2,980.7 442.9,953.3 445.6,936.7 448.3,926.7 451.0,920.6 453.7,917.0 456.4,914.7 459.1,913.4 461.8,912.5 464.5,912.1 467.2,911.8 469.9,911.6 472.6,911.5 475.3,911.5 478.0,911.4 480.7,911.4 483.4,911.4 486.1,948.5 488.8,948.6 491.5,948.6 494.2,948.6 496.9,948.6 499.6,948.6 502.3,948.5 505.0,948.3 507.7,948.3 510.4,948.4 513.1,948.4 515.8,948.4 518.5,948.4 521.2,948.4 523.8,948.4 526.5,948.5 529.2,948.5 531.9,948.5 534.6,948.4 537.3,948.5 540.0,948.5 542.7,948.4 545.4,948.4 548.1,948.4 550.8,948.4 553.5,948.4 556.2,948.3 558.9,948.3 561.6,948.3 564.3,948.3 567.0,948.4 569.7,948.4 572.4,948.4 575.1,948.5 577.8,948.4 580.5,948.5 583.2,948.5 585.9,948.5 588.6,948.5 591.3,948.5 594.0,948.5 596.7,948.5 599.4,948.5 602.1,948.5 604.8,948.5 607.5,948.5 610.2,948.5 612.9,948.5 615.6,948.5 618.3,948.5 621.0,948.5 623.7,948.5 626.4,948.5 629.1,948.5 631.8,948.6 634.5,948.6 637.2,948.6 639.9,948.6 642.6,948.6 645.3,948.7 648.0,948.7 650.7,948.7 653.4,948.7 656.1,948.9 658.8,948.8 661.5,949.0 664.2,949.0 666.9,949.3 669.6,950.1 672.3,950.4 675.0,951.1" fill="none" stroke="#9957ae" stroke-width="3"/>
<polyline points="765.0,1025.0 767.7,1025.0 770.4,1025.0 773.1,1025.0 775.8,1025.0 778.5,1025.0 781.2,1025.0 783.9,1025.0 786.6,1025.0 789.3,1025.0 792.0,1025.0 794.7,1025.0 797.4,1025.0 800.1,1025.0 802.8,1025.0 805.5,1025.0 808.2,1025.0 810.9,1025.0 813.6,1025.0 816.3,1025.0 819.0,1025.0 821.7,1025.0 824.4,1025.0 827.1,1025.0 829.8,1025.0 832.5,1025.0 835.2,1025.0 837.9,1025.0 840.6,1025.0 843.3,1025.0 846.0,1025.0 848.7,1025.0 851.4,1025.0 854.1,1025.0 856.8,1025.0 859.5,1025.0 862.2,1025.0 864.9,1025.0 867.6,1025.0 870.3,1025.0 873.0,1025.0 875.7,1025.0 878.4,1025.0 881.1,1025.0 883.8,1025.0 886.5,1025.0 889.2,1025.0 891.9,1025.0 894.6,1025.0 897.3,1025.0 900.0,1025.0 902.7,1025.0 905.4,1025.0 908.1,1025.0 910.8,1025.0 913.5,1025.0 916.2,1025.0 918.8,1025.0 921.5,1025.0 924.2,1025.0 926.9,1025.0 929.6,1025.0 932.3,1025.0 935.0,1025.0 937.7,1025.0 940.4,1025.0 943.1,1025.0 945.8,1025.0 948.5,1025.0 951.2,1025.0 953.9,1025.0 956.6,1025.0 959.3,1025.0 962.0,1025.0 964.7,1025.0 967.4,1025.0 970.1,1025.0 972.8,1025.0 975.5,1025.0 978.2,1025.0 980.9,1025.0 983.6,1025.0 986.3,1025.0 989.0,1025.0 991.7,1025.0 994.4,1025.0 997.1,1025.0 999.8,1025.0 1002.5,1025.0 1005.2,1025.0 1007.9,1025.0 1010.6,1025.0 1013.3,1025.0 1016.0,1025.0 1018.7,1025.0 1021.4,1025.0 1024.1,1025.0 1026.8,1025.0 1029.5,1025.0 1032.2,1025.0 1034.9,1025.0 1037.6,1025.0 1040.3,1025.0 1043.0,1025.0 1045.7,1025.0 1048.4,1025.0 1051.1,1025.0 1053.8,1025.0 1056.5,1025.0 1059.2,1025.0 1061.9,1025.0 1064.6,1025.0 1067.3,1025.0 1070.0,1025.0 1072.7,1025.0 1075.4,1025.0 1078.1,1025.0 1080.8,1025.0 1083.5,1025.0 1086.2,1025.0 1088.9,1025.0 1091.6,1025.0 1094.3,1025.0 1097.0,1025.0 1099.7,1025.0 1102.4,1025.0 1105.1,1025.0 1107.8,1025.0 1110.5,1025.0 1113.2,1025.0 1115.9,1025.0 1118.6,1025.0 1121.3,1025.0 1124.0,1025.0 1126.7,1025.0 1129.4,1025.0 1132.1,1025.0 1134.8,1025.0 1137.5,1025.0 1140.2,1025.0 1142.9,1025.0 1145.6,1025.0 1148.3,1025.0 1151.0,1025.0 1153.7,1025.0 1156.4,1025.0 1159.1,1025.0 1161.8,1025.0 1164.5,1025.0 1167.2,1025.0 1169.9,1025.0 1172.6,1025.0 1175.3,1025.0 1178.0,1025.0 1180.7,1025.0 1183.4,1025.0 1186.1,1025.0 1188.8,1025.0 1191.5,1025.0 1194.2,1025.0 1196.9,1025.0 1199.6,1025.0 1202.3,1025.0 1205.0,1025.0 1207.7,1025.0 1210.4,1025.0 1213.1,1025.0 1215.8,1025.0 1218.5,1025.0 1221.2,1025.0 1223.8,1025.0 1226.5,1025.0 1229.2,1025.0 1231.9,1025.0 1234.6,1025.0 1237.3,1025.0 1240.0,1025.0 1242.7,1025.0 1245.4,1025.0 1248.1,1025.0 1250.8,1025.0 1253.5,1025.0 1256.2,1025.0 1258.9,1025.0 1261.6,1025.0 1264.3,1025.0 1267.0,1025.0 1269.7,1025.0 1272.4,1025.0 1275.1,1025.0 1277.8,1025.0 1280.5,1025.0 1283.2,1025.0 1285.9,1025.0 1288.6,1025.0 1291.3,1025.0 1294.0,1025.0 1296.7,1025.0 1299.4,1025.0 1302.1,1025.0 1304.8,1025.0 1307.5,1025.0 1310.2,1025.0 1312.9,1025.0 1315.6,1025.0 1318.3,1025.0 1321.0,1025.0 1323.7,1025.0 1326.4,1025.0 1329.1,1025.0 1331.8,1025.0 1334.5,1025.0 1337.2,1025.0 1339.9,1025.0 1342.6,1025.0 1345.3,1025.0 1348.0,1025.0 1350.7,1025.0 1353.4,1025.0 1356.1,1025.0 1358.8,1025.0 1361.5,1025.0 1364.2,1025.0 1366.9,1025.0 1369.6,1025.0 1372.3,1025.0 1375.0,1025.0" fill="none" stroke="#b64b45" stroke-width="3"/>
<line x1="765.0" y1="911.4" x2="1375.0" y2="911.4" stroke="#b64b45" stroke-width="1" stroke-dasharray="5 5"/>
<text x="1375" y="906.3636363636364" fill="#b64b45" font-family="Arial, sans-serif" font-size="13" font-weight="normal" text-anchor="end">limit 5000</text>
<text x="65" y="1051" fill="#617185" font-family="Arial, sans-serif" font-size="14" font-weight="normal" text-anchor="start">Green dots mark the first official is_grasped=true transition in the path panels.</text>
<circle id="cursor-base" cx="136.0" cy="365.9" r="11" fill="none" stroke="#111827" stroke-width="2"/>
<circle id="cursor-tip" cx="409.5" cy="364.1" r="11" fill="none" stroke="#111827" stroke-width="2"/>
<circle id="cursor-side" cx="1015.8" cy="289.1" r="11" fill="none" stroke="#111827" stroke-width="2"/>
<line id="cursor-time" x1="1370" y1="704" x2="1370" y2="1025" stroke="#111827" stroke-width="2" opacity="0.6"/>
<text x="40" y="1102" fill="#617185" font-family="Arial, sans-serif" font-size="13" font-weight="normal" text-anchor="start">XY is relative to the attempt-start base when its entry qpos is archived; otherwise relative to first recorded frame. TCP is transformed from each current base_link into that same frame. No scene mesh or object ground truth is plotted.</text>
</svg>
